<mxfile host="app.diagrams.net" agent="Mozilla/5.0 (X11; Linux x86_64) AppleWebKit/537.36 (KHTML, like Gecko) Chrome/137.0.0.0 Safari/537.36" version="26.2.14">
  <diagram id="vUK79cyUhG_cuELW7UIg" name="Page-1">
    <mxGraphModel grid="1" page="1" gridSize="10" guides="1" tooltips="1" connect="1" arrows="1" fold="1" pageScale="1" pageWidth="1100" pageHeight="850" math="0" shadow="0">
      <root>
        <mxCell id="0" />
        <mxCell id="1" parent="0" />
        <mxCell id="kGeEh1ZH-eyiwNWvtosE-2" value="Control Plane" style="shape=umlLifeline;perimeter=lifelinePerimeter;whiteSpace=wrap;html=1;container=1;dropTarget=0;collapsible=0;recursiveResize=0;outlineConnect=0;portConstraint=eastwest;newEdgeStyle={&quot;curved&quot;:0,&quot;rounded&quot;:0};fontStyle=1;fillColor=#dae8fc;strokeColor=#6c8ebf;" vertex="1" parent="1">
          <mxGeometry x="390" y="80" width="100" height="230" as="geometry" />
        </mxCell>
        <mxCell id="kGeEh1ZH-eyiwNWvtosE-3" value="Data Plane" style="shape=umlLifeline;perimeter=lifelinePerimeter;whiteSpace=wrap;html=1;container=1;dropTarget=0;collapsible=0;recursiveResize=0;outlineConnect=0;portConstraint=eastwest;newEdgeStyle={&quot;curved&quot;:0,&quot;rounded&quot;:0};fontStyle=1;fillColor=#dae8fc;strokeColor=#6c8ebf;" vertex="1" parent="1">
          <mxGeometry x="530" y="80" width="100" height="375" as="geometry" />
        </mxCell>
        <mxCell id="kIAV2KlWlpfCjw6Ie7mM-1" value="" style="shape=umlLifeline;perimeter=lifelinePerimeter;whiteSpace=wrap;html=1;container=1;dropTarget=0;collapsible=0;recursiveResize=0;outlineConnect=0;portConstraint=eastwest;newEdgeStyle={&quot;curved&quot;:0,&quot;rounded&quot;:0};participant=umlActor;fillColor=#f5f5f5;strokeColor=#666666;fontColor=#333333;" vertex="1" parent="1">
          <mxGeometry x="90" y="110" width="20" height="770" as="geometry" />
        </mxCell>
        <mxCell id="kIAV2KlWlpfCjw6Ie7mM-2" value="EDC" style="shape=umlFrame;whiteSpace=wrap;html=1;pointerEvents=0;fillColor=#dae8fc;strokeColor=#6c8ebf;fontStyle=1;width=90;height=35;" vertex="1" parent="1">
          <mxGeometry x="360" y="20" width="310" height="130" as="geometry" />
        </mxCell>
        <mxCell id="kIAV2KlWlpfCjw6Ie7mM-3" value="EDC" style="shape=umlFrame;whiteSpace=wrap;html=1;pointerEvents=0;fillColor=#d5e8d4;strokeColor=#82b366;fontStyle=1;width=100;height=35;" vertex="1" parent="1">
          <mxGeometry x="830" y="50" width="320" height="120" as="geometry" />
        </mxCell>
        <mxCell id="BTOncEqT4pYrV1wDK8pt-6" value="2.6 Request Script Execution" style="edgeStyle=orthogonalEdgeStyle;rounded=0;orthogonalLoop=1;jettySize=auto;html=1;curved=0;fontStyle=1;" edge="1" parent="1" target="BTOncEqT4pYrV1wDK8pt-2">
          <mxGeometry relative="1" as="geometry">
            <mxPoint x="1059.5" y="670" as="sourcePoint" />
            <mxPoint x="1319.5" y="670" as="targetPoint" />
            <Array as="points">
              <mxPoint x="1060" y="671" />
              <mxPoint x="1175" y="671" />
              <mxPoint x="1175" y="670" />
            </Array>
          </mxGeometry>
        </mxCell>
        <mxCell id="5sBvzIGpUhGAM-q7FBYm-2" value="Data Plane" style="shape=umlLifeline;perimeter=lifelinePerimeter;whiteSpace=wrap;html=1;container=1;dropTarget=0;collapsible=0;recursiveResize=0;outlineConnect=0;portConstraint=eastwest;newEdgeStyle={&quot;curved&quot;:0,&quot;rounded&quot;:0};fontStyle=1;fillColor=#d5e8d4;strokeColor=#82b366;" vertex="1" parent="1">
          <mxGeometry x="1010" y="100" width="100" height="570" as="geometry" />
        </mxCell>
        <mxCell id="5sBvzIGpUhGAM-q7FBYm-3" value="Control Plane" style="shape=umlLifeline;perimeter=lifelinePerimeter;whiteSpace=wrap;html=1;container=1;dropTarget=0;collapsible=0;recursiveResize=0;outlineConnect=0;portConstraint=eastwest;newEdgeStyle={&quot;curved&quot;:0,&quot;rounded&quot;:0};fontStyle=1;fillColor=#d5e8d4;strokeColor=#82b366;" vertex="1" parent="1">
          <mxGeometry x="870" y="100" width="100" height="160" as="geometry" />
        </mxCell>
        <mxCell id="5sBvzIGpUhGAM-q7FBYm-13" value="2.2 Validate Transfer Data Destination" style="edgeStyle=orthogonalEdgeStyle;rounded=0;orthogonalLoop=1;jettySize=auto;html=1;curved=0;fontStyle=1" edge="1" parent="1" source="kGeEh1ZH-eyiwNWvtosE-3" target="kGeEh1ZH-eyiwNWvtosE-3">
          <mxGeometry x="-0.1953" y="62" relative="1" as="geometry">
            <mxPoint x="600" y="415" as="sourcePoint" />
            <mxPoint x="600" y="435" as="targetPoint" />
            <Array as="points">
              <mxPoint x="631" y="420" />
              <mxPoint x="631" y="450" />
            </Array>
            <mxPoint x="-3" y="-20" as="offset" />
          </mxGeometry>
        </mxCell>
        <mxCell id="BTOncEqT4pYrV1wDK8pt-1" value="Infrastructure Provider" style="shape=umlFrame;whiteSpace=wrap;html=1;pointerEvents=0;fillColor=#008a00;strokeColor=#005700;fontStyle=1;width=150;height=35;fontColor=#ffffff;" vertex="1" parent="1">
          <mxGeometry x="800" y="-10" width="1040" height="930" as="geometry" />
        </mxCell>
        <mxCell id="BTOncEqT4pYrV1wDK8pt-10" value="2.7 Request Script Execution" style="edgeStyle=orthogonalEdgeStyle;rounded=0;orthogonalLoop=1;jettySize=auto;html=1;curved=0;fontStyle=1" edge="1" parent="1" source="BTOncEqT4pYrV1wDK8pt-2" target="BTOncEqT4pYrV1wDK8pt-8">
          <mxGeometry relative="1" as="geometry">
            <Array as="points">
              <mxPoint x="1400" y="720" />
              <mxPoint x="1400" y="720" />
            </Array>
          </mxGeometry>
        </mxCell>
        <mxCell id="BTOncEqT4pYrV1wDK8pt-2" value="Triggering Module" style="shape=umlLifeline;perimeter=lifelinePerimeter;whiteSpace=wrap;html=1;container=1;dropTarget=0;collapsible=0;recursiveResize=0;outlineConnect=0;portConstraint=eastwest;newEdgeStyle={&quot;curved&quot;:0,&quot;rounded&quot;:0};fontStyle=1;fillColor=#d5e8d4;strokeColor=#82b366;" vertex="1" parent="1">
          <mxGeometry x="1290" y="105" width="100" height="725" as="geometry" />
        </mxCell>
        <mxCell id="5sBvzIGpUhGAM-q7FBYm-14" value="2.3 Request Push Transfer" style="edgeStyle=orthogonalEdgeStyle;rounded=0;orthogonalLoop=1;jettySize=auto;html=1;curved=0;fontStyle=1" edge="1" parent="1" source="kGeEh1ZH-eyiwNWvtosE-3" target="5sBvzIGpUhGAM-q7FBYm-2">
          <mxGeometry relative="1" as="geometry">
            <Array as="points">
              <mxPoint x="860" y="480" />
              <mxPoint x="860" y="480" />
            </Array>
          </mxGeometry>
        </mxCell>
        <mxCell id="5sBvzIGpUhGAM-q7FBYm-7" value="1.2 Request Contract Negotiation" style="edgeStyle=orthogonalEdgeStyle;rounded=0;orthogonalLoop=1;jettySize=auto;html=1;curved=0;fontStyle=1" edge="1" parent="1" source="kGeEh1ZH-eyiwNWvtosE-2" target="5sBvzIGpUhGAM-q7FBYm-3">
          <mxGeometry relative="1" as="geometry">
            <Array as="points">
              <mxPoint x="620" y="210" />
              <mxPoint x="620" y="210" />
            </Array>
          </mxGeometry>
        </mxCell>
        <mxCell id="5sBvzIGpUhGAM-q7FBYm-8" value="1.3 Receive Contract Agreement" style="edgeStyle=orthogonalEdgeStyle;rounded=0;orthogonalLoop=1;jettySize=auto;html=1;curved=0;fontStyle=1" edge="1" parent="1" source="5sBvzIGpUhGAM-q7FBYm-3">
          <mxGeometry relative="1" as="geometry">
            <mxPoint x="799.5" y="260" as="sourcePoint" />
            <mxPoint x="440" y="260" as="targetPoint" />
            <Array as="points">
              <mxPoint x="616" y="260" />
              <mxPoint x="616" y="261" />
            </Array>
          </mxGeometry>
        </mxCell>
        <mxCell id="BTOncEqT4pYrV1wDK8pt-3" value="2.4 Load Asset from Transfer Contract" style="edgeStyle=orthogonalEdgeStyle;rounded=0;orthogonalLoop=1;jettySize=auto;html=1;curved=0;fontStyle=1" edge="1" parent="1">
          <mxGeometry x="0.2308" y="-73" relative="1" as="geometry">
            <mxPoint x="1060" y="550" as="sourcePoint" />
            <mxPoint x="1060" y="520" as="targetPoint" />
            <Array as="points">
              <mxPoint x="1060" y="550" />
              <mxPoint x="1110" y="550" />
              <mxPoint x="1110" y="520" />
            </Array>
            <mxPoint x="70" y="53" as="offset" />
          </mxGeometry>
        </mxCell>
        <mxCell id="BTOncEqT4pYrV1wDK8pt-4" value="2.5 Validate Asset Data Address" style="edgeStyle=orthogonalEdgeStyle;rounded=0;orthogonalLoop=1;jettySize=auto;html=1;curved=0;fontStyle=1" edge="1" parent="1">
          <mxGeometry x="0.2308" y="-54" relative="1" as="geometry">
            <mxPoint x="1060" y="630" as="sourcePoint" />
            <mxPoint x="1060" y="600" as="targetPoint" />
            <Array as="points">
              <mxPoint x="1060" y="630" />
              <mxPoint x="1110" y="630" />
              <mxPoint x="1110" y="600" />
            </Array>
            <mxPoint x="50" y="34" as="offset" />
          </mxGeometry>
        </mxCell>
        <mxCell id="5sBvzIGpUhGAM-q7FBYm-10" value="2.1 Initiate Push Transfer ( contract, consumerEmail )" style="edgeStyle=orthogonalEdgeStyle;rounded=0;orthogonalLoop=1;jettySize=auto;html=1;curved=0;fontStyle=1" edge="1" parent="1" source="kIAV2KlWlpfCjw6Ie7mM-1" target="kGeEh1ZH-eyiwNWvtosE-3">
          <mxGeometry relative="1" as="geometry">
            <mxPoint x="110" y="370" as="sourcePoint" />
            <mxPoint x="540" y="370" as="targetPoint" />
            <Array as="points">
              <mxPoint x="325" y="370" />
              <mxPoint x="325" y="371" />
            </Array>
          </mxGeometry>
        </mxCell>
        <mxCell id="5sBvzIGpUhGAM-q7FBYm-9" value="1.4 Receive Contract Agreed Callback" style="edgeStyle=orthogonalEdgeStyle;rounded=0;orthogonalLoop=1;jettySize=auto;html=1;curved=0;fontStyle=1" edge="1" parent="1">
          <mxGeometry relative="1" as="geometry">
            <mxPoint x="440" y="310" as="sourcePoint" />
            <mxPoint x="99.5" y="310" as="targetPoint" />
            <Array as="points">
              <mxPoint x="245" y="310" />
              <mxPoint x="245" y="311" />
            </Array>
          </mxGeometry>
        </mxCell>
        <mxCell id="5sBvzIGpUhGAM-q7FBYm-6" value="1.1. Initiate Contract Negotiation (offer)" style="edgeStyle=orthogonalEdgeStyle;rounded=0;orthogonalLoop=1;jettySize=auto;html=1;curved=0;fontStyle=1" edge="1" parent="1" source="kIAV2KlWlpfCjw6Ie7mM-1" target="kGeEh1ZH-eyiwNWvtosE-2">
          <mxGeometry relative="1" as="geometry">
            <Array as="points">
              <mxPoint x="230" y="180" />
              <mxPoint x="230" y="180" />
            </Array>
          </mxGeometry>
        </mxCell>
        <mxCell id="BTOncEqT4pYrV1wDK8pt-7" value="3.3 Send Email with Infra Access Data" style="edgeStyle=orthogonalEdgeStyle;rounded=0;orthogonalLoop=1;jettySize=auto;html=1;curved=0;fontStyle=1;startArrow=classic;startFill=1;endArrow=none;endFill=0;" edge="1" parent="1" source="kIAV2KlWlpfCjw6Ie7mM-1" target="BTOncEqT4pYrV1wDK8pt-12">
          <mxGeometry relative="1" as="geometry">
            <mxPoint x="810" y="820" as="sourcePoint" />
            <mxPoint x="1070" y="820" as="targetPoint" />
            <Array as="points">
              <mxPoint x="1350" y="880" />
              <mxPoint x="1350" y="880" />
            </Array>
          </mxGeometry>
        </mxCell>
        <mxCell id="BTOncEqT4pYrV1wDK8pt-11" value="3.1 Receive Infra Access Data" style="edgeStyle=orthogonalEdgeStyle;rounded=0;orthogonalLoop=1;jettySize=auto;html=1;curved=0;fontStyle=1" edge="1" parent="1" source="BTOncEqT4pYrV1wDK8pt-8" target="BTOncEqT4pYrV1wDK8pt-2">
          <mxGeometry relative="1" as="geometry">
            <mxPoint x="1580" y="780" as="sourcePoint" />
            <mxPoint x="1330" y="780" as="targetPoint" />
            <Array as="points">
              <mxPoint x="1450" y="780" />
              <mxPoint x="1450" y="780" />
            </Array>
          </mxGeometry>
        </mxCell>
        <mxCell id="BTOncEqT4pYrV1wDK8pt-8" value="Provisioning Module" style="shape=umlLifeline;perimeter=lifelinePerimeter;whiteSpace=wrap;html=1;container=1;dropTarget=0;collapsible=0;recursiveResize=0;outlineConnect=0;portConstraint=eastwest;newEdgeStyle={&quot;curved&quot;:0,&quot;rounded&quot;:0};fontStyle=1;fillColor=#d5e8d4;strokeColor=#82b366;" vertex="1" parent="1">
          <mxGeometry x="1540" y="105" width="100" height="675" as="geometry" />
        </mxCell>
        <mxCell id="BTOncEqT4pYrV1wDK8pt-12" value="SMTP Service" style="shape=umlLifeline;perimeter=lifelinePerimeter;whiteSpace=wrap;html=1;container=1;dropTarget=0;collapsible=0;recursiveResize=0;outlineConnect=0;portConstraint=eastwest;newEdgeStyle={&quot;curved&quot;:0,&quot;rounded&quot;:0};fontStyle=1;fillColor=#d5e8d4;strokeColor=#82b366;" vertex="1" parent="1">
          <mxGeometry x="1710" y="105" width="100" height="775" as="geometry" />
        </mxCell>
        <mxCell id="BTOncEqT4pYrV1wDK8pt-13" value="3.2 Request Email Send" style="edgeStyle=orthogonalEdgeStyle;rounded=0;orthogonalLoop=1;jettySize=auto;html=1;curved=0;fontStyle=1" edge="1" parent="1" source="BTOncEqT4pYrV1wDK8pt-2" target="BTOncEqT4pYrV1wDK8pt-12">
          <mxGeometry relative="1" as="geometry">
            <mxPoint x="1370" y="870" as="sourcePoint" />
            <mxPoint x="1620" y="870" as="targetPoint" />
            <Array as="points">
              <mxPoint x="1400" y="830" />
              <mxPoint x="1400" y="830" />
            </Array>
          </mxGeometry>
        </mxCell>
        <mxCell id="IhePpl3FJLJgLW56lIpT-1" value="Consumer" style="shape=umlFrame;whiteSpace=wrap;html=1;pointerEvents=0;fillColor=#0050ef;strokeColor=#001DBC;fontStyle=1;width=90;height=35;fontColor=#ffffff;" vertex="1" parent="1">
          <mxGeometry x="310" y="-40" width="410" height="960" as="geometry" />
        </mxCell>
      </root>
    </mxGraphModel>
  </diagram>
</mxfile>
